<svg version="1.2" xmlns="http://www.w3.org/2000/svg" viewBox="0 0 959 219" width="959" height="219"><defs><filter x="-50%" y="-50%" width="200%" height="200%" id="f1" ><feDropShadow dx="8.698697882665158" dy="9.660882731206126" stdDeviation="0" flood-color="#000000" flood-opacity=".8"/></filter></defs><style>.a{filter:url(#f1);fill:#3de54c;stroke:#000;stroke-miterlimit:100;stroke-width:.4}.b{fill:#fff}</style><path class="a" d="m14.7 17.3h924.6c0.3 0 0.5 0.2 0.5 0.5v185.7c0 0.3-0.2 0.5-0.5 0.5h-924.6c-0.3 0-0.5-0.2-0.5-0.5v-185.7c0-0.3 0.2-0.5 0.5-0.5z"/><path fill-rule="evenodd" d="m82.3 147.4v8.1h32.6v-8.1h8.2v-8.2h16.3v16.3h-8.2v8.2h-8.1v8.1h-49v-8.1h-8.1v-8.2h-8.2v-81.5h8.2v-8.2h8.1v-8.1h49v8.1h8.1v8.2h8.2v16.3h-16.3v-8.2h-8.2v-8.1h-32.6v8.1h-8.2v65.3zm97.9-24.5h-8.2v48.9h-16.3v-114.1h16.3v40.8h8.2v-8.2h8.1v-8.2h24.5v8.2h8.2v8.2h8.1v8.1h8.2v65.2h-16.3v-57h-8.2v-8.2h-8.2v-8.1h-8.1v8.1h-8.2v8.2h-8.1zm130.5 24.5h24.4v8.1h-8.1v8.2h-8.2v8.1h-48.9v-8.1h-8.2v-8.2h-8.1v-57.1h8.1v-8.1h8.2v-8.2h48.9v8.2h8.2v8.1h8.1v24.5h-8.1v8.2h-57.1v16.3h8.1v8.1h32.7zm-32.7-40.8h-8.1v8.1h48.9v-8.1h-8.1v-8.2h-32.7zm130.5 40.9h24.5v8.1h-8.2v8.2h-8.1v8.1h-49v-8.1h-8.1v-8.2h-8.2v-57.1h8.2v-8.1h8.1v-8.2h49v8.2h8.1v8.1h8.2v24.5h-8.2v8.2h-57.1v16.3h8.2v8.1h32.6zm-32.6-40.8h-8.2v8.1h49v-8.1h-8.2v-8.2h-32.6zm97.8 0.1h-8.1v65.2h-16.3v-89.7h16.3v8.1h8.1v-8.1h40.8v8.1h8.2v8.2h8.1v73.4h-16.3v-65.2h-8.1v-8.2h-8.2v73.4h-16.3v-73.4h-8.2zm81.6 57.1v-8.2h-8.2v-16.3h16.3v8.2h8.2v8.1h32.6v-16.3h-16.3v-8.1h-16.3v-8.2h-16.3v-8.1h-8.2v-16.4h8.2v-8.1h8.1v-8.2h49v8.2h8.1v8.1h8.2v16.4h-16.3v-8.2h-8.2v-8.2h-32.6v16.4h24.5v8.1h16.3v8.2h8.1v8.1h8.2v16.3h-8.2v8.2h-8.1v8.1h-49v-8.1zm154.9 8.1h-65.2v-114.1h65.2v8.1h8.2v8.2h8.1v32.6h-8.1v16.3h8.1v32.6h-8.1v8.2h-8.2zm-48.9-97.8v32.6h40.8v-8.2h8.2v-16.3h-8.2v-8.1zm0 48.9v32.6h40.8v-8.2h8.1v-16.3h-8.1v-8.1zm146.8 48.9h-48.9v-8.2h-8.2v-8.1h-8.1v-57.1h8.1v-8.2h8.2v-8.1h48.9v8.1h8.2v8.2h8.1v57.1h-8.1v8.1h-8.2zm-40.8-24.5v8.2h32.6v-8.2h8.2v-40.8h-8.2v-8.1h-32.6v8.1h-8.2v40.8zm130.5 0.1v8.1h8.2v16.3h-16.4v-8.1h-8.1v-8.2h-8.2v-57.1h-16.3v-16.3h16.3v-24.4h16.3v24.4h16.4v16.3h-16.4v49z"/><path fill-rule="evenodd" class="b" d="m73.3 138.4v8.1h32.6v-8.1h8.2v-8.2h16.3v16.3h-8.2v8.2h-8.1v8.1h-49v-8.1h-8.1v-8.2h-8.2v-81.5h8.2v-8.2h8.1v-8.1h49v8.1h8.1v8.2h8.2v16.3h-16.3v-8.2h-8.2v-8.1h-32.6v8.1h-8.2v65.3zm97.9-24.5h-8.2v48.9h-16.3v-114.1h16.3v40.8h8.2v-8.2h8.1v-8.2h24.5v8.2h8.2v8.2h8.1v8.1h8.2v65.2h-16.3v-57h-8.2v-8.2h-8.2v-8.1h-8.1v8.1h-8.2v8.2h-8.1zm130.5 24.5h24.4v8.1h-8.1v8.2h-8.2v8.1h-48.9v-8.1h-8.2v-8.2h-8.1v-57.1h8.1v-8.1h8.2v-8.2h48.9v8.2h8.2v8.1h8.1v24.5h-8.1v8.2h-57.1v16.3h8.1v8.1h32.7zm-32.7-40.8h-8.1v8.1h48.9v-8.1h-8.1v-8.2h-32.7zm130.5 40.9h24.5v8.1h-8.2v8.2h-8.1v8.1h-49v-8.1h-8.1v-8.2h-8.2v-57.1h8.2v-8.1h8.1v-8.2h49v8.2h8.1v8.1h8.2v24.5h-8.2v8.2h-57.1v16.3h8.2v8.1h32.6zm-32.6-40.8h-8.2v8.1h49v-8.1h-8.2v-8.2h-32.6zm97.8 0.1h-8.1v65.2h-16.3v-89.7h16.3v8.1h8.1v-8.1h40.8v8.1h8.2v8.2h8.1v73.4h-16.3v-65.2h-8.1v-8.2h-8.2v73.4h-16.3v-73.4h-8.2zm81.6 57.1v-8.2h-8.2v-16.3h16.3v8.2h8.2v8.1h32.6v-16.3h-16.3v-8.1h-16.3v-8.2h-16.3v-8.1h-8.2v-16.4h8.2v-8.1h8.1v-8.2h49v8.2h8.1v8.1h8.2v16.4h-16.3v-8.2h-8.2v-8.2h-32.6v16.4h24.5v8.1h16.3v8.2h8.1v8.1h8.2v16.3h-8.2v8.2h-8.1v8.1h-49v-8.1zm154.9 8.1h-65.2v-114.1h65.2v8.1h8.2v8.2h8.1v32.6h-8.1v16.3h8.1v32.6h-8.1v8.2h-8.2zm-48.9-97.8v32.6h40.8v-8.2h8.2v-16.3h-8.2v-8.1zm0 48.9v32.6h40.8v-8.2h8.1v-16.3h-8.1v-8.1zm146.8 48.9h-48.9v-8.2h-8.2v-8.1h-8.1v-57.1h8.1v-8.2h8.2v-8.1h48.9v8.1h8.2v8.2h8.1v57.1h-8.1v8.1h-8.2zm-40.8-24.5v8.2h32.6v-8.2h8.2v-40.8h-8.2v-8.1h-32.6v8.1h-8.2v40.8zm130.5 0.1v8.1h8.2v16.3h-16.4v-8.1h-8.1v-8.2h-8.2v-57.1h-16.3v-16.3h16.3v-24.4h16.3v24.4h16.4v16.3h-16.4v49z"/></svg>